# xmcd
#
# Track frame offsets:
#	182
#	19520
#	31432
#	49655
#	64447
#	97882
#	114522
#	129585
#	140822
#	160640
#	177705
#	213787
#	224490
#	238317
#	259937
#	286002
#
# Disc length: 4110 seconds
#
# Revision: 1
# Processed by: cddbd v1.5.2PL0 Copyright (c) Steve Scherf et al.
# Submitted via: EasyCDDAExtractor 11.1.0.1
#
DISCID=f0100c10
DTITLE=Various Artist - Somebody Loan Me  A Dime
DYEAR=1996
DGENRE=Blues
TTITLE0=Byther Smith - Tell Me How You Like It
TTITLE1=The Paul DeLay Band - Rode Myself Crazy
TTITLE2=Billy Boy Arnold - Ooh Wee
TTITLE3=Mississippi Fred McDowell - My Babe
TTITLE4=UP Wilson - Hold On Baby
TTITLE5=John Lee Hooker - Helpless Blues
TTITLE6=Louisiana Red - Your Gonna Need Me Baby
TTITLE7=Ike Turner - Ho Ho
TTITLE8=Fenton Robinson - Somebody Loan Me A Dime
TTITLE9=Muddy Waters - I Got My Mojo Working
TTITLE10=Albert Collins - How Blue Can You Get
TTITLE11=Roosevelt Sykes - Hey Woman
TTITLE12=Lightnin' Hopkins - Got Me A Louisiana Woman
TTITLE13=Eddie Clearwater - I Don't Know Why
TTITLE14=Charlie Musselwhite - She Used To Be Beautiful
TTITLE15=Magic Slim - Ship Made Of Paper
EXTD=YEAR: 1996
EXTT0=
EXTT1=
EXTT2=
EXTT3=
EXTT4=
EXTT5=
EXTT6=
EXTT7=
EXTT8=
EXTT9=
EXTT10=
EXTT11=
EXTT12=
EXTT13=
EXTT14=
EXTT15=
PLAYORDER=
